<svg xmlns="http://www.w3.org/2000/svg" width="64" height="64" viewBox="0 0 64 64">
  <!-- Agent-Tale Icon — Dark Mode (Violet) -->
  <line x1="20" y1="18" x2="32" y2="6" stroke="#9982f8" stroke-width="2" opacity="0.5"/>
  <line x1="44" y1="18" x2="32" y2="6" stroke="#9982f8" stroke-width="2" opacity="0.5"/>
  <line x1="20" y1="18" x2="44" y2="18" stroke="#ad9cff" stroke-width="1.5" opacity="0.3"/>
  <line x1="20" y1="18" x2="14" y2="36" stroke="#9982f8" stroke-width="1.5" opacity="0.4"/>
  <line x1="44" y1="18" x2="50" y2="36" stroke="#9982f8" stroke-width="1.5" opacity="0.4"/>
  <line x1="14" y1="36" x2="50" y2="36" stroke="#ad9cff" stroke-width="2" opacity="0.5"/>
  <line x1="14" y1="36" x2="8" y2="52" stroke="#9982f8" stroke-width="1" opacity="0.2"/>
  <line x1="50" y1="36" x2="56" y2="52" stroke="#9982f8" stroke-width="1" opacity="0.2"/>

  <circle cx="32" cy="6" r="5" fill="#9982f8"/><circle cx="32" cy="6" r="2.5" fill="#07070b"/><circle cx="32" cy="6" r="1.5" fill="#9982f8"/>
  <circle cx="20" cy="18" r="4" fill="#ad9cff" opacity="0.75"/><circle cx="20" cy="18" r="2" fill="#07070b"/><circle cx="20" cy="18" r="1.2" fill="#ad9cff"/>
  <circle cx="44" cy="18" r="4" fill="#ad9cff" opacity="0.75"/><circle cx="44" cy="18" r="2" fill="#07070b"/><circle cx="44" cy="18" r="1.2" fill="#ad9cff"/>
  <circle cx="14" cy="36" r="4.5" fill="#9982f8"/><circle cx="14" cy="36" r="2.5" fill="#07070b"/><circle cx="14" cy="36" r="1.5" fill="#9982f8"/>
  <circle cx="50" cy="36" r="4.5" fill="#9982f8"/><circle cx="50" cy="36" r="2.5" fill="#07070b"/><circle cx="50" cy="36" r="1.5" fill="#9982f8"/>
  <circle cx="8" cy="52" r="3" fill="#ad9cff" opacity="0.4"/><circle cx="8" cy="52" r="1.5" fill="#07070b" opacity="0.6"/>
  <circle cx="56" cy="52" r="3" fill="#ad9cff" opacity="0.4"/><circle cx="56" cy="52" r="1.5" fill="#07070b" opacity="0.6"/>
</svg>
