<svg xmlns="http://www.w3.org/2000/svg" width="420" viewBox="0 0 420 280">
  <!-- Agent-Tale Logo — Dark Mode (Violet) -->

  <!-- Graph edges -->
  <line x1="140" y1="52" x2="210" y2="20" stroke="#9982f8" stroke-width="1.5" opacity="0.25"/>
  <line x1="280" y1="52" x2="210" y2="20" stroke="#9982f8" stroke-width="1.5" opacity="0.25"/>
  <line x1="140" y1="52" x2="280" y2="52" stroke="#9982f8" stroke-width="1" opacity="0.15"/>
  <line x1="140" y1="52" x2="114" y2="120" stroke="#9982f8" stroke-width="1.5" opacity="0.25"/>
  <line x1="280" y1="52" x2="306" y2="120" stroke="#9982f8" stroke-width="1.5" opacity="0.25"/>
  <line x1="114" y1="120" x2="306" y2="120" stroke="#9982f8" stroke-width="2" opacity="0.35"/>
  <line x1="114" y1="120" x2="90" y2="186" stroke="#9982f8" stroke-width="1" opacity="0.15"/>
  <line x1="306" y1="120" x2="330" y2="186" stroke="#9982f8" stroke-width="1" opacity="0.15"/>

  <!-- Active edges -->
  <line x1="210" y1="20" x2="140" y2="52" stroke="#9982f8" stroke-width="2.5" opacity="0.6"/>
  <line x1="210" y1="20" x2="280" y2="52" stroke="#9982f8" stroke-width="2.5" opacity="0.6"/>
  <line x1="140" y1="52" x2="114" y2="120" stroke="#9982f8" stroke-width="2" opacity="0.5"/>
  <line x1="280" y1="52" x2="306" y2="120" stroke="#9982f8" stroke-width="2" opacity="0.5"/>
  <line x1="114" y1="120" x2="306" y2="120" stroke="#ad9cff" stroke-width="2.5" opacity="0.55"/>

  <!-- Satellite nodes -->
  <circle cx="100" cy="60" r="3" fill="#9982f8" opacity="0.15"/>
  <line x1="100" y1="60" x2="140" y2="52" stroke="#9982f8" stroke-width="0.5" opacity="0.12"/>
  <circle cx="320" cy="68" r="3" fill="#9982f8" opacity="0.15"/>
  <line x1="320" y1="68" x2="280" y2="52" stroke="#9982f8" stroke-width="0.5" opacity="0.12"/>
  <circle cx="210" cy="142" r="2.5" fill="#9982f8" opacity="0.12"/>
  <line x1="210" y1="142" x2="114" y2="120" stroke="#9982f8" stroke-width="0.5" opacity="0.1"/>
  <line x1="210" y1="142" x2="306" y2="120" stroke="#9982f8" stroke-width="0.5" opacity="0.1"/>

  <!-- Nodes -->
  <circle cx="210" cy="20" r="12" fill="#9982f8" opacity="0.85"/>
  <circle cx="210" cy="20" r="7" fill="#07070b"/>
  <circle cx="210" cy="20" r="4" fill="#9982f8"/>

  <circle cx="140" cy="52" r="10" fill="#ad9cff" opacity="0.7"/>
  <circle cx="140" cy="52" r="5.5" fill="#07070b"/>
  <circle cx="140" cy="52" r="3" fill="#ad9cff"/>

  <circle cx="280" cy="52" r="10" fill="#ad9cff" opacity="0.7"/>
  <circle cx="280" cy="52" r="5.5" fill="#07070b"/>
  <circle cx="280" cy="52" r="3" fill="#ad9cff"/>

  <circle cx="114" cy="120" r="11" fill="#9982f8" opacity="0.85"/>
  <circle cx="114" cy="120" r="6" fill="#07070b"/>
  <circle cx="114" cy="120" r="3.5" fill="#9982f8"/>

  <circle cx="306" cy="120" r="11" fill="#9982f8" opacity="0.85"/>
  <circle cx="306" cy="120" r="6" fill="#07070b"/>
  <circle cx="306" cy="120" r="3.5" fill="#9982f8"/>

  <circle cx="90" cy="186" r="7" fill="#ad9cff" opacity="0.4"/>
  <circle cx="90" cy="186" r="4" fill="#07070b" opacity="0.8"/>
  <circle cx="90" cy="186" r="2.5" fill="#ad9cff" opacity="0.4"/>

  <circle cx="330" cy="186" r="7" fill="#ad9cff" opacity="0.4"/>
  <circle cx="330" cy="186" r="4" fill="#07070b" opacity="0.8"/>
  <circle cx="330" cy="186" r="2.5" fill="#ad9cff" opacity="0.4"/>

  <!-- Wordmark -->
  <text x="210" y="234" text-anchor="middle" font-family="'Space Grotesk', system-ui, sans-serif" font-size="32" font-weight="600" letter-spacing="-0.5" fill="#eae7e4">Agent-Tale</text>

  <!-- Tagline -->
  <text x="210" y="260" text-anchor="middle" font-family="'Space Grotesk', system-ui, sans-serif" font-size="11" font-weight="400" letter-spacing="2" fill="#84868b">EVERY TALE IS CONNECTED</text>
</svg>
